<svg xmlns="http://www.w3.org/2000/svg" viewBox="453.655792 286.173126 217.537933 255.637604">
    <g fill="none" stroke="#000" stroke-linecap="round" stroke-linejoin="round" stroke-width="2.75">
        <path d="M634.359 485.582c-58.104-22.47267-116.208-44.94533-174.312-67.418M460.047 418.164c52.24467-31.27333 104.48933-62.54667 156.734-93.82M664.547 401.84l-47.766-77.496M634.359 485.582c10.06267-27.914 20.12533-55.828 30.188-83.742M634.359 485.582c-11.01567 16.63267-22.03133 33.26533-33.047 49.898M601.312 535.48c-23.42167-.0467-46.84333-.0933-70.265-.14M531.047 535.34c-23.66667-39.05867-47.33333-78.11733-71-117.176M460.047 418.164l48.969-109.746M509.016 308.418c24.39567-5.55067 48.79133-11.10133 73.187-16.652M616.781 324.344c-11.526-10.85933-23.052-21.71867-34.578-32.578"/>
    </g>
    <style>
        .face { font: bold 100px sans-serif; }
    </style>
    <text x="550" y="380" class="face" transform="rotate(-90 620 370)">0</text>
</svg>
